<svg xmlns="http://www.w3.org/2000/svg" width="540" height="500" viewBox="0 0 540 500" fill="none">
<g>
<path d="M159 67L170 131" stroke="#000000" stroke-opacity="0.22" stroke-width="1.3" stroke-linecap="round" />
<path d="M159 67L170 131" stroke="#FFFFFF" stroke-opacity="0.22" stroke-width="1.3" stroke-linecap="round" />
<path d="M181.5 324L170 131" stroke="#000000" stroke-opacity="0.22" stroke-width="1.3" stroke-linecap="round" />
<path d="M181.5 324L170 131" stroke="#FFFFFF" stroke-opacity="0.22" stroke-width="1.3" stroke-linecap="round" />
<path d="M159 67L221 131" stroke="#000000" stroke-opacity="0.22" stroke-width="1.3" stroke-linecap="round" />
<path d="M159 67L221 131" stroke="#FFFFFF" stroke-opacity="0.22" stroke-width="1.3" stroke-linecap="round" />
<path d="M159 67L221 131" stroke="#000000" stroke-opacity="0.22" stroke-width="1.3" stroke-linecap="round" />
<path d="M159 67L221 131" stroke="#FFFFFF" stroke-opacity="0.22" stroke-width="1.3" stroke-linecap="round" />
<path d="M191.5 67L221 131" stroke="#000000" stroke-opacity="0.22" stroke-width="1.3" stroke-linecap="round" />
<path d="M191.5 67L221 131" stroke="#FFFFFF" stroke-opacity="0.22" stroke-width="1.3" stroke-linecap="round" />
<path d="M286 196L221 131" stroke="#000000" stroke-opacity="0.22" stroke-width="1.3" stroke-linecap="round" />
<path d="M286 196L221 131" stroke="#FFFFFF" stroke-opacity="0.22" stroke-width="1.3" stroke-linecap="round" />
<path d="M291.5 261L221 131" stroke="#000000" stroke-opacity="0.22" stroke-width="1.3" stroke-linecap="round" />
<path d="M291.5 261L221 131" stroke="#FFFFFF" stroke-opacity="0.22" stroke-width="1.3" stroke-linecap="round" />
<path d="M200 196L221 131" stroke="#000000" stroke-opacity="0.22" stroke-width="1.3" stroke-linecap="round" />
<path d="M200 196L221 131" stroke="#FFFFFF" stroke-opacity="0.22" stroke-width="1.3" stroke-linecap="round" />
<path d="M359 323.5L221 131" stroke="#000000" stroke-opacity="0.22" stroke-width="1.3" stroke-linecap="round" />
<path d="M359 323.5L221 131" stroke="#FFFFFF" stroke-opacity="0.22" stroke-width="1.3" stroke-linecap="round" />
<path d="M191.5 67L285.5 195.5" stroke="#000000" stroke-opacity="0.22" stroke-width="1.3" stroke-linecap="round" />
<path d="M191.5 67L285.5 195.5" stroke="#FFFFFF" stroke-opacity="0.22" stroke-width="1.3" stroke-linecap="round" />
<path d="M191.5 67L371 196.5" stroke="#000000" stroke-opacity="0.22" stroke-width="1.3" stroke-linecap="round" />
<path d="M191.5 67L371 196.5" stroke="#FFFFFF" stroke-opacity="0.22" stroke-width="1.3" stroke-linecap="round" />
<path d="M191.5 67L420.5 260" stroke="#000000" stroke-opacity="0.22" stroke-width="1.3" stroke-linecap="round" />
<path d="M191.5 67L420.5 260" stroke="#FFFFFF" stroke-opacity="0.22" stroke-width="1.3" stroke-linecap="round" />
<path d="M191.5 67L294 131" stroke="#000000" stroke-opacity="0.22" stroke-width="1.3" stroke-linecap="round" />
<path d="M191.5 67L294 131" stroke="#FFFFFF" stroke-opacity="0.22" stroke-width="1.3" stroke-linecap="round" />
<path d="M239.5 67.5L285.5 195.5" stroke="#000000" stroke-opacity="0.22" stroke-width="1.3" stroke-linecap="round" />
<path d="M239.5 67.5L285.5 195.5" stroke="#FFFFFF" stroke-opacity="0.22" stroke-width="1.3" stroke-linecap="round" />
<path d="M239.5 67.5L295 131" stroke="#000000" stroke-opacity="0.22" stroke-width="1.3" stroke-linecap="round" />
<path d="M239.5 67.5L295 131" stroke="#FFFFFF" stroke-opacity="0.22" stroke-width="1.3" stroke-linecap="round" />
<path d="M239.5 67.5L328.5 196.5" stroke="#000000" stroke-opacity="0.22" stroke-width="1.3" stroke-linecap="round" />
<path d="M239.5 67.5L328.5 196.5" stroke="#FFFFFF" stroke-opacity="0.22" stroke-width="1.3" stroke-linecap="round" />
<path d="M239.5 67.5L333.5 262" stroke="#000000" stroke-opacity="0.22" stroke-width="1.3" stroke-linecap="round" />
<path d="M239.5 67.5L333.5 262" stroke="#FFFFFF" stroke-opacity="0.22" stroke-width="1.3" stroke-linecap="round" />
<path d="M239.5 67.5L372 196.5" stroke="#000000" stroke-opacity="0.22" stroke-width="1.3" stroke-linecap="round" />
<path d="M239.5 67.5L372 196.5" stroke="#FFFFFF" stroke-opacity="0.22" stroke-width="1.3" stroke-linecap="round" />
<path d="M286 67.5L372 196.5" stroke="#000000" stroke-opacity="0.22" stroke-width="1.3" stroke-linecap="round" />
<path d="M286 67.5L372 196.5" stroke="#FFFFFF" stroke-opacity="0.22" stroke-width="1.3" stroke-linecap="round" />
<path d="M333 67.5L398.5 451.5" stroke="#000000" stroke-opacity="0.22" stroke-width="1.3" stroke-linecap="round" />
<path d="M333 67.5L398.5 451.5" stroke="#FFFFFF" stroke-opacity="0.22" stroke-width="1.3" stroke-linecap="round" />
<path d="M333 67.5L294.5 131.5" stroke="#000000" stroke-opacity="0.22" stroke-width="1.3" stroke-linecap="round" />
<path d="M333 67.5L294.5 131.5" stroke="#FFFFFF" stroke-opacity="0.22" stroke-width="1.3" stroke-linecap="round" />
<path d="M333 67.5003L200 195" stroke="#000000" stroke-opacity="0.22" stroke-width="1.3" stroke-linecap="round" />
<path d="M333 67.5003L200 195" stroke="#FFFFFF" stroke-opacity="0.22" stroke-width="1.3" stroke-linecap="round" />
<path d="M333 67.5009L159 193" stroke="#000000" stroke-opacity="0.22" stroke-width="1.3" stroke-linecap="round" />
<path d="M333 67.5009L159 193" stroke="#FFFFFF" stroke-opacity="0.22" stroke-width="1.3" stroke-linecap="round" />
<path d="M333 66.5C348.23 117.268 356.77 145.732 372 196.5" stroke="#000000" stroke-opacity="0.22" stroke-width="1.3" stroke-linecap="round" />
<path d="M333 66.5C348.23 117.268 356.77 145.732 372 196.5" stroke="#FFFFFF" stroke-opacity="0.22" stroke-width="1.3" stroke-linecap="round" />
<path d="M333 66.5C348.23 117.268 356.77 145.732 372 196.5" stroke="#000000" stroke-opacity="0.22" stroke-width="1.3" stroke-linecap="round" />
<path d="M333 66.5C348.23 117.268 356.77 145.732 372 196.5" stroke="#FFFFFF" stroke-opacity="0.22" stroke-width="1.3" stroke-linecap="round" />
<path d="M333 66.5L377.5 260" stroke="#000000" stroke-opacity="0.22" stroke-width="1.3" stroke-linecap="round" />
<path d="M333 66.5L377.5 260" stroke="#FFFFFF" stroke-opacity="0.22" stroke-width="1.3" stroke-linecap="round" />
<path d="M286 67.5006L199.5 196" stroke="#000000" stroke-opacity="0.22" stroke-width="1.3" stroke-linecap="round" />
<path d="M286 67.5006L199.5 196" stroke="#FFFFFF" stroke-opacity="0.22" stroke-width="1.3" stroke-linecap="round" />
<path d="M286 67.501L157 197.5" stroke="#000000" stroke-opacity="0.22" stroke-width="1.3" stroke-linecap="round" />
<path d="M286 67.501L157 197.5" stroke="#FFFFFF" stroke-opacity="0.22" stroke-width="1.3" stroke-linecap="round" />
<path d="M286 67.5L329.5 196.5" stroke="#000000" stroke-opacity="0.22" stroke-width="1.3" stroke-linecap="round" />
<path d="M286 67.5L329.5 196.5" stroke="#FFFFFF" stroke-opacity="0.22" stroke-width="1.3" stroke-linecap="round" />
<path d="M295 131.5L329.5 196.5" stroke="#000000" stroke-opacity="0.22" stroke-width="1.3" stroke-linecap="round" />
<path d="M295 131.5L329.5 196.5" stroke="#FFFFFF" stroke-opacity="0.22" stroke-width="1.3" stroke-linecap="round" />
<path d="M295 131.5L285 199.5" stroke="#000000" stroke-opacity="0.22" stroke-width="1.3" stroke-linecap="round" />
<path d="M295 131.5L285 199.5" stroke="#FFFFFF" stroke-opacity="0.22" stroke-width="1.3" stroke-linecap="round" />
<path d="M295 131.501L179.5 386.5" stroke="#000000" stroke-opacity="0.22" stroke-width="1.3" stroke-linecap="round" />
<path d="M295 131.501L179.5 386.5" stroke="#FFFFFF" stroke-opacity="0.22" stroke-width="1.3" stroke-linecap="round" />
<path d="M295 131.502L244.5 194.5" stroke="#000000" stroke-opacity="0.22" stroke-width="1.3" stroke-linecap="round" />
<path d="M295 131.502L244.5 194.5" stroke="#FFFFFF" stroke-opacity="0.22" stroke-width="1.3" stroke-linecap="round" />
<path d="M295 131.502L199.5 194.5" stroke="#000000" stroke-opacity="0.22" stroke-width="1.3" stroke-linecap="round" />
<path d="M295 131.502L199.5 194.5" stroke="#FFFFFF" stroke-opacity="0.22" stroke-width="1.3" stroke-linecap="round" />
<path d="M286 67.5L295.5 131.5" stroke="#000000" stroke-opacity="0.22" stroke-width="1.3" stroke-linecap="round" />
<path d="M286 67.5L295.5 131.5" stroke="#FFFFFF" stroke-opacity="0.22" stroke-width="1.3" stroke-linecap="round" />
<path d="M333 67L366.5 131" stroke="#000000" stroke-opacity="0.22" stroke-width="1.3" stroke-linecap="round" />
<path d="M333 67L366.5 131" stroke="#FFFFFF" stroke-opacity="0.22" stroke-width="1.3" stroke-linecap="round" />
<path d="M380 67.5L366.5 131" stroke="#000000" stroke-opacity="0.22" stroke-width="1.3" stroke-linecap="round" />
<path d="M380 67.5L366.5 131" stroke="#FFFFFF" stroke-opacity="0.22" stroke-width="1.3" stroke-linecap="round" />
<path d="M371 199L366.5 131" stroke="#000000" stroke-opacity="0.22" stroke-width="1.3" stroke-linecap="round" />
<path d="M371 199L366.5 131" stroke="#FFFFFF" stroke-opacity="0.22" stroke-width="1.3" stroke-linecap="round" />
<path d="M371 199L421.5 259.5" stroke="#000000" stroke-opacity="0.22" stroke-width="1.3" stroke-linecap="round" />
<path d="M371 199L421.5 259.5" stroke="#FFFFFF" stroke-opacity="0.22" stroke-width="1.3" stroke-linecap="round" />
<path d="M414 196.5L421.5 259.5" stroke="#000000" stroke-opacity="0.22" stroke-width="1.3" stroke-linecap="round" />
<path d="M414 196.5L421.5 259.5" stroke="#FFFFFF" stroke-opacity="0.22" stroke-width="1.3" stroke-linecap="round" />
<path d="M458 196L421.5 259.5" stroke="#000000" stroke-opacity="0.22" stroke-width="1.3" stroke-linecap="round" />
<path d="M458 196L421.5 259.5" stroke="#FFFFFF" stroke-opacity="0.22" stroke-width="1.3" stroke-linecap="round" />
<path d="M360.5 386.5L420 260" stroke="#000000" stroke-opacity="0.22" stroke-width="1.3" stroke-linecap="round" />
<path d="M360.5 386.5L420 260" stroke="#FFFFFF" stroke-opacity="0.22" stroke-width="1.3" stroke-linecap="round" />
<path d="M399 451L420 260" stroke="#000000" stroke-opacity="0.22" stroke-width="1.3" stroke-linecap="round" />
<path d="M399 451L420 260" stroke="#FFFFFF" stroke-opacity="0.22" stroke-width="1.3" stroke-linecap="round" />
<path d="M360.5 386.5L463 260" stroke="#000000" stroke-opacity="0.22" stroke-width="1.3" stroke-linecap="round" />
<path d="M360.5 386.5L463 260" stroke="#FFFFFF" stroke-opacity="0.22" stroke-width="1.3" stroke-linecap="round" />
<path d="M270 324L463 260.001" stroke="#000000" stroke-opacity="0.22" stroke-width="1.3" stroke-linecap="round" />
<path d="M270 324L463 260.001" stroke="#FFFFFF" stroke-opacity="0.22" stroke-width="1.3" stroke-linecap="round" />
<path d="M360.5 386.5L505 260.501" stroke="#000000" stroke-opacity="0.22" stroke-width="1.3" stroke-linecap="round" />
<path d="M360.5 386.5L505 260.501" stroke="#FFFFFF" stroke-opacity="0.22" stroke-width="1.3" stroke-linecap="round" />
<path d="M271 323L505 260.502" stroke="#000000" stroke-opacity="0.22" stroke-width="1.3" stroke-linecap="round" />
<path d="M271 323L505 260.502" stroke="#FFFFFF" stroke-opacity="0.22" stroke-width="1.3" stroke-linecap="round" />
<path d="M270.5 325L421.5 259.501" stroke="#000000" stroke-opacity="0.22" stroke-width="1.3" stroke-linecap="round" />
<path d="M270.5 325L421.5 259.501" stroke="#FFFFFF" stroke-opacity="0.22" stroke-width="1.3" stroke-linecap="round" />
<path d="M270.5 323.5L421.5 259.501" stroke="#000000" stroke-opacity="0.22" stroke-width="1.3" stroke-linecap="round" />
<path d="M270.5 323.5L421.5 259.501" stroke="#FFFFFF" stroke-opacity="0.22" stroke-width="1.3" stroke-linecap="round" />
<path d="M270.5 323.5L331.5 261" stroke="#000000" stroke-opacity="0.22" stroke-width="1.3" stroke-linecap="round" />
<path d="M270.5 323.5L331.5 261" stroke="#FFFFFF" stroke-opacity="0.22" stroke-width="1.3" stroke-linecap="round" />
<path d="M270.5 323.5L291 262.5" stroke="#000000" stroke-opacity="0.22" stroke-width="1.3" stroke-linecap="round" />
<path d="M270.5 323.5L291 262.5" stroke="#FFFFFF" stroke-opacity="0.22" stroke-width="1.3" stroke-linecap="round" />
<path d="M184 450L291 262.501" stroke="#000000" stroke-opacity="0.22" stroke-width="1.3" stroke-linecap="round" />
<path d="M184 450L291 262.501" stroke="#FFFFFF" stroke-opacity="0.22" stroke-width="1.3" stroke-linecap="round" />
<path d="M458 196.001L290 260" stroke="#000000" stroke-opacity="0.22" stroke-width="1.3" stroke-linecap="round" />
<path d="M458 196.001L290 260" stroke="#FFFFFF" stroke-opacity="0.22" stroke-width="1.3" stroke-linecap="round" />
<path d="M458 196.005L206.5 259.5" stroke="#000000" stroke-opacity="0.22" stroke-width="1.3" stroke-linecap="round" />
<path d="M458 196.005L206.5 259.5" stroke="#FFFFFF" stroke-opacity="0.22" stroke-width="1.3" stroke-linecap="round" />
<path d="M458 196.006L163.5 260" stroke="#000000" stroke-opacity="0.22" stroke-width="1.3" stroke-linecap="round" />
<path d="M458 196.006L163.5 260" stroke="#FFFFFF" stroke-opacity="0.22" stroke-width="1.3" stroke-linecap="round" />
<path d="M458 196.006L185.5 451" stroke="#000000" stroke-opacity="0.22" stroke-width="1.3" stroke-linecap="round" />
<path d="M458 196.006L185.5 451" stroke="#FFFFFF" stroke-opacity="0.22" stroke-width="1.3" stroke-linecap="round" />
<path d="M414 196.501L292.5 258.5" stroke="#000000" stroke-opacity="0.22" stroke-width="1.3" stroke-linecap="round" />
<path d="M414 196.501L292.5 258.5" stroke="#FFFFFF" stroke-opacity="0.22" stroke-width="1.3" stroke-linecap="round" />
<path d="M414 196.502L185 450.5" stroke="#000000" stroke-opacity="0.22" stroke-width="1.3" stroke-linecap="round" />
<path d="M414 196.502L185 450.5" stroke="#FFFFFF" stroke-opacity="0.22" stroke-width="1.3" stroke-linecap="round" />
<path d="M414 196.5L361 385.5" stroke="#000000" stroke-opacity="0.22" stroke-width="1.3" stroke-linecap="round" />
<path d="M414 196.5L361 385.5" stroke="#FFFFFF" stroke-opacity="0.22" stroke-width="1.3" stroke-linecap="round" />
<path d="M372 195.5L376 256.5" stroke="#000000" stroke-opacity="0.22" stroke-width="1.3" stroke-linecap="round" />
<path d="M372 195.5L376 256.5" stroke="#FFFFFF" stroke-opacity="0.22" stroke-width="1.3" stroke-linecap="round" />
<path d="M372 195.5L334.5 258.5" stroke="#000000" stroke-opacity="0.22" stroke-width="1.3" stroke-linecap="round" />
<path d="M372 195.5L334.5 258.5" stroke="#FFFFFF" stroke-opacity="0.22" stroke-width="1.3" stroke-linecap="round" />
<path d="M328.5 197L334.5 258.5" stroke="#000000" stroke-opacity="0.22" stroke-width="1.3" stroke-linecap="round" />
<path d="M328.5 197L334.5 258.5" stroke="#FFFFFF" stroke-opacity="0.22" stroke-width="1.3" stroke-linecap="round" />
<path d="M328.5 197L292.5 260" stroke="#000000" stroke-opacity="0.22" stroke-width="1.3" stroke-linecap="round" />
<path d="M328.5 197L292.5 260" stroke="#FFFFFF" stroke-opacity="0.22" stroke-width="1.3" stroke-linecap="round" />
<path d="M286 197.5L292.5 260" stroke="#000000" stroke-opacity="0.22" stroke-width="1.3" stroke-linecap="round" />
<path d="M286 197.5L292.5 260" stroke="#FFFFFF" stroke-opacity="0.22" stroke-width="1.3" stroke-linecap="round" />
<path d="M286 197.5L248 260" stroke="#000000" stroke-opacity="0.22" stroke-width="1.3" stroke-linecap="round" />
<path d="M286 197.5L248 260" stroke="#FFFFFF" stroke-opacity="0.22" stroke-width="1.3" stroke-linecap="round" />
<path d="M242.5 195.5L248 260" stroke="#000000" stroke-opacity="0.22" stroke-width="1.3" stroke-linecap="round" />
<path d="M242.5 195.5L248 260" stroke="#FFFFFF" stroke-opacity="0.22" stroke-width="1.3" stroke-linecap="round" />
<path d="M200 196.5L206 259.5" stroke="#000000" stroke-opacity="0.22" stroke-width="1.3" stroke-linecap="round" />
<path d="M200 196.5L206 259.5" stroke="#FFFFFF" stroke-opacity="0.22" stroke-width="1.3" stroke-linecap="round" />
<path d="M200 196.5L249 260" stroke="#000000" stroke-opacity="0.22" stroke-width="1.3" stroke-linecap="round" />
<path d="M200 196.5L249 260" stroke="#FFFFFF" stroke-opacity="0.22" stroke-width="1.3" stroke-linecap="round" />
<path d="M200 196.5L292.5 258.5" stroke="#000000" stroke-opacity="0.22" stroke-width="1.3" stroke-linecap="round" />
<path d="M200 196.5L292.5 258.5" stroke="#FFFFFF" stroke-opacity="0.22" stroke-width="1.3" stroke-linecap="round" />
<path d="M200 196.5L333.5 259" stroke="#000000" stroke-opacity="0.22" stroke-width="1.3" stroke-linecap="round" />
<path d="M200 196.5L333.5 259" stroke="#FFFFFF" stroke-opacity="0.22" stroke-width="1.3" stroke-linecap="round" />
<path d="M200 196.5L376 259.5" stroke="#000000" stroke-opacity="0.22" stroke-width="1.3" stroke-linecap="round" />
<path d="M200 196.5L376 259.5" stroke="#FFFFFF" stroke-opacity="0.22" stroke-width="1.3" stroke-linecap="round" />
<path d="M200 196.5L163.5 258" stroke="#000000" stroke-opacity="0.22" stroke-width="1.3" stroke-linecap="round" />
<path d="M200 196.5L163.5 258" stroke="#FFFFFF" stroke-opacity="0.22" stroke-width="1.3" stroke-linecap="round" />
<path d="M158 195L163.5 258" stroke="#000000" stroke-opacity="0.22" stroke-width="1.3" stroke-linecap="round" />
<path d="M158 195L163.5 258" stroke="#FFFFFF" stroke-opacity="0.22" stroke-width="1.3" stroke-linecap="round" />
<path d="M158 195L163.5 258" stroke="#000000" stroke-opacity="0.22" stroke-width="1.3" stroke-linecap="round" />
<path d="M158 195L163.5 258" stroke="#FFFFFF" stroke-opacity="0.22" stroke-width="1.3" stroke-linecap="round" />
<path d="M158 195L204.5 256" stroke="#000000" stroke-opacity="0.22" stroke-width="1.3" stroke-linecap="round" />
<path d="M158 195L204.5 256" stroke="#FFFFFF" stroke-opacity="0.22" stroke-width="1.3" stroke-linecap="round" />
<path d="M158 195L248.5 259.5" stroke="#000000" stroke-opacity="0.22" stroke-width="1.3" stroke-linecap="round" />
<path d="M158 195L248.5 259.5" stroke="#FFFFFF" stroke-opacity="0.22" stroke-width="1.3" stroke-linecap="round" />
<path d="M158 195L291.5 259" stroke="#000000" stroke-opacity="0.22" stroke-width="1.3" stroke-linecap="round" />
<path d="M158 195L291.5 259" stroke="#FFFFFF" stroke-opacity="0.22" stroke-width="1.3" stroke-linecap="round" />
<path d="M158 195L335 259.5" stroke="#000000" stroke-opacity="0.22" stroke-width="1.3" stroke-linecap="round" />
<path d="M158 195L335 259.5" stroke="#FFFFFF" stroke-opacity="0.22" stroke-width="1.3" stroke-linecap="round" />
<path d="M158 195L335 259.5" stroke="#000000" stroke-opacity="0.22" stroke-width="1.3" stroke-linecap="round" />
<path d="M158 195L335 259.5" stroke="#FFFFFF" stroke-opacity="0.22" stroke-width="1.3" stroke-linecap="round" />
<path d="M158 195L381 259" stroke="#000000" stroke-opacity="0.22" stroke-width="1.3" stroke-linecap="round" />
<path d="M158 195L381 259" stroke="#FFFFFF" stroke-opacity="0.22" stroke-width="1.3" stroke-linecap="round" />
<path d="M158 195L359 386.5" stroke="#000000" stroke-opacity="0.22" stroke-width="1.3" stroke-linecap="round" />
<path d="M158 195L359 386.5" stroke="#FFFFFF" stroke-opacity="0.22" stroke-width="1.3" stroke-linecap="round" />
<path d="M158 195L120 260" stroke="#000000" stroke-opacity="0.22" stroke-width="1.3" stroke-linecap="round" />
<path d="M158 195L120 260" stroke="#FFFFFF" stroke-opacity="0.22" stroke-width="1.3" stroke-linecap="round" />
<path d="M181 324.5L120 260" stroke="#000000" stroke-opacity="0.22" stroke-width="1.3" stroke-linecap="round" />
<path d="M181 324.5L120 260" stroke="#FFFFFF" stroke-opacity="0.22" stroke-width="1.3" stroke-linecap="round" />
<path d="M270 386.5L120 260" stroke="#000000" stroke-opacity="0.22" stroke-width="1.3" stroke-linecap="round" />
<path d="M270 386.5L120 260" stroke="#FFFFFF" stroke-opacity="0.22" stroke-width="1.3" stroke-linecap="round" />
<path d="M114.5 194L120 260" stroke="#000000" stroke-opacity="0.22" stroke-width="1.3" stroke-linecap="round" />
<path d="M114.5 194L120 260" stroke="#FFFFFF" stroke-opacity="0.22" stroke-width="1.3" stroke-linecap="round" />
<path d="M114.5 194L163.5 258" stroke="#000000" stroke-opacity="0.22" stroke-width="1.3" stroke-linecap="round" />
<path d="M114.5 194L163.5 258" stroke="#FFFFFF" stroke-opacity="0.22" stroke-width="1.3" stroke-linecap="round" />
<path d="M114.5 194L209.5 260" stroke="#000000" stroke-opacity="0.22" stroke-width="1.3" stroke-linecap="round" />
<path d="M114.5 194L209.5 260" stroke="#FFFFFF" stroke-opacity="0.22" stroke-width="1.3" stroke-linecap="round" />
<path d="M114.5 194L290.5 258.5" stroke="#000000" stroke-opacity="0.22" stroke-width="1.3" stroke-linecap="round" />
<path d="M114.5 194L290.5 258.5" stroke="#FFFFFF" stroke-opacity="0.22" stroke-width="1.3" stroke-linecap="round" />
<path d="M114.5 194L271.5 324.5" stroke="#000000" stroke-opacity="0.22" stroke-width="1.3" stroke-linecap="round" />
<path d="M114.5 194L271.5 324.5" stroke="#FFFFFF" stroke-opacity="0.22" stroke-width="1.3" stroke-linecap="round" />
<path d="M78.5 194.5L184.5 452.5" stroke="#000000" stroke-opacity="0.22" stroke-width="1.3" stroke-linecap="round" />
<path d="M78.5 194.5L184.5 452.5" stroke="#FFFFFF" stroke-opacity="0.22" stroke-width="1.3" stroke-linecap="round" />
<path d="M78.5 194.5L184.5 452.5" stroke="#000000" stroke-opacity="0.22" stroke-width="1.3" stroke-linecap="round" />
<path d="M78.5 194.5L184.5 452.5" stroke="#FFFFFF" stroke-opacity="0.22" stroke-width="1.3" stroke-linecap="round" />
<path d="M78.5 260L313.5 449.5" stroke="#000000" stroke-opacity="0.22" stroke-width="1.3" stroke-linecap="round" />
<path d="M78.5 260L313.5 449.5" stroke="#FFFFFF" stroke-opacity="0.22" stroke-width="1.3" stroke-linecap="round" />
<path d="M78.5 260L270.5 387.5" stroke="#000000" stroke-opacity="0.22" stroke-width="1.3" stroke-linecap="round" />
<path d="M78.5 260L270.5 387.5" stroke="#FFFFFF" stroke-opacity="0.22" stroke-width="1.3" stroke-linecap="round" />
<path d="M78.5 260L358.5 386.5" stroke="#000000" stroke-opacity="0.22" stroke-width="1.3" stroke-linecap="round" />
<path d="M78.5 260L358.5 386.5" stroke="#FFFFFF" stroke-opacity="0.22" stroke-width="1.3" stroke-linecap="round" />
<path d="M78.5 260L270 324" stroke="#000000" stroke-opacity="0.22" stroke-width="1.3" stroke-linecap="round" />
<path d="M78.5 260L270 324" stroke="#FFFFFF" stroke-opacity="0.22" stroke-width="1.3" stroke-linecap="round" />
<path d="M34.5 261L313.5 449.5" stroke="#000000" stroke-opacity="0.22" stroke-width="1.3" stroke-linecap="round" />
<path d="M34.5 261L313.5 449.5" stroke="#FFFFFF" stroke-opacity="0.22" stroke-width="1.3" stroke-linecap="round" />
<path d="M34.5 261L357 387" stroke="#000000" stroke-opacity="0.22" stroke-width="1.3" stroke-linecap="round" />
<path d="M34.5 261L357 387" stroke="#FFFFFF" stroke-opacity="0.22" stroke-width="1.3" stroke-linecap="round" />
<path d="M34.5 261L268.5 324.5" stroke="#000000" stroke-opacity="0.22" stroke-width="1.3" stroke-linecap="round" />
<path d="M34.5 261L268.5 324.5" stroke="#FFFFFF" stroke-opacity="0.22" stroke-width="1.3" stroke-linecap="round" />
<path d="M116 196L184.5 452.5" stroke="#000000" stroke-opacity="0.22" stroke-width="1.3" stroke-linecap="round" />
<path d="M116 196L184.5 452.5" stroke="#FFFFFF" stroke-opacity="0.22" stroke-width="1.3" stroke-linecap="round" />
<path d="M78.5 194.5L270 388" stroke="#000000" stroke-opacity="0.22" stroke-width="1.3" stroke-linecap="round" />
<path d="M78.5 194.5L270 388" stroke="#FFFFFF" stroke-opacity="0.22" stroke-width="1.3" stroke-linecap="round" />
<path d="M78.5 194.5L163 259.5" stroke="#000000" stroke-opacity="0.22" stroke-width="1.3" stroke-linecap="round" />
<path d="M78.5 194.5L163 259.5" stroke="#FFFFFF" stroke-opacity="0.22" stroke-width="1.3" stroke-linecap="round" />
<path d="M78.5 194.5L207 259.5" stroke="#000000" stroke-opacity="0.22" stroke-width="1.3" stroke-linecap="round" />
<path d="M78.5 194.5L207 259.5" stroke="#FFFFFF" stroke-opacity="0.22" stroke-width="1.3" stroke-linecap="round" />
<path d="M270 323L207 259.5" stroke="#000000" stroke-opacity="0.22" stroke-width="1.3" stroke-linecap="round" />
<path d="M270 323L207 259.5" stroke="#FFFFFF" stroke-opacity="0.22" stroke-width="1.3" stroke-linecap="round" />
<path d="M270 323L359.5 387" stroke="#000000" stroke-opacity="0.22" stroke-width="1.3" stroke-linecap="round" />
<path d="M270 323L359.5 387" stroke="#FFFFFF" stroke-opacity="0.22" stroke-width="1.3" stroke-linecap="round" />
<path d="M270 323L179.5 387.5" stroke="#000000" stroke-opacity="0.22" stroke-width="1.3" stroke-linecap="round" />
<path d="M270 323L179.5 387.5" stroke="#FFFFFF" stroke-opacity="0.22" stroke-width="1.3" stroke-linecap="round" />
<path d="M182 450.5L179.5 387.5" stroke="#000000" stroke-opacity="0.22" stroke-width="1.3" stroke-linecap="round" />
<path d="M182 450.5L179.5 387.5" stroke="#FFFFFF" stroke-opacity="0.22" stroke-width="1.3" stroke-linecap="round" />
<path d="M182 450.5L179.5 387.5" stroke="#000000" stroke-opacity="0.22" stroke-width="1.3" stroke-linecap="round" />
<path d="M182 450.5L179.5 387.5" stroke="#FFFFFF" stroke-opacity="0.22" stroke-width="1.3" stroke-linecap="round" />
<path d="M184.5 451.5L182 324.5" stroke="#000000" stroke-opacity="0.22" stroke-width="1.3" stroke-linecap="round" />
<path d="M184.5 451.5L182 324.5" stroke="#FFFFFF" stroke-opacity="0.22" stroke-width="1.3" stroke-linecap="round" />
<path d="M354 452L359.5 386.5" stroke="#000000" stroke-opacity="0.22" stroke-width="1.3" stroke-linecap="round" />
<path d="M354 452L359.5 386.5" stroke="#FFFFFF" stroke-opacity="0.22" stroke-width="1.3" stroke-linecap="round" />
<path d="M313 450.5L359.5 386.5" stroke="#000000" stroke-opacity="0.22" stroke-width="1.3" stroke-linecap="round" />
<path d="M313 450.5L359.5 386.5" stroke="#FFFFFF" stroke-opacity="0.22" stroke-width="1.3" stroke-linecap="round" />
<path d="M399.5 453.5L359.5 386.5" stroke="#000000" stroke-opacity="0.22" stroke-width="1.3" stroke-linecap="round" />
<path d="M399.5 453.5L359.5 386.5" stroke="#FFFFFF" stroke-opacity="0.22" stroke-width="1.3" stroke-linecap="round" />
<path d="M230 451L359.5 386.5" stroke="#000000" stroke-opacity="0.22" stroke-width="1.3" stroke-linecap="round" />
<path d="M230 451L359.5 386.5" stroke="#FFFFFF" stroke-opacity="0.22" stroke-width="1.3" stroke-linecap="round" />
<path d="M271 450L359.5 386.5" stroke="#000000" stroke-opacity="0.22" stroke-width="1.3" stroke-linecap="round" />
<path d="M271 450L359.5 386.5" stroke="#FFFFFF" stroke-opacity="0.22" stroke-width="1.3" stroke-linecap="round" />
<path d="M184.497 451.5L200.5 196" stroke="#000000" stroke-opacity="0.22" stroke-width="1.3" stroke-linecap="round" />
<path d="M184.497 451.5L200.5 196" stroke="#FFFFFF" stroke-opacity="0.22" stroke-width="1.3" stroke-linecap="round" />
<path d="M184.5 452.5L244 195.5" stroke="#000000" stroke-opacity="0.22" stroke-width="1.3" stroke-linecap="round" />
<path d="M184.5 452.5L244 195.5" stroke="#FFFFFF" stroke-opacity="0.22" stroke-width="1.3" stroke-linecap="round" />
<path d="M359 324.5L179.5 387.5" stroke="#000000" stroke-opacity="0.22" stroke-width="1.3" stroke-linecap="round" />
<path d="M359 324.5L179.5 387.5" stroke="#FFFFFF" stroke-opacity="0.22" stroke-width="1.3" stroke-linecap="round" />
<path d="M359 324.501L270.5 387" stroke="#000000" stroke-opacity="0.22" stroke-width="1.3" stroke-linecap="round" />
<path d="M359 324.501L270.5 387" stroke="#FFFFFF" stroke-opacity="0.22" stroke-width="1.3" stroke-linecap="round" />
<path d="M312.5 452L270.5 387" stroke="#000000" stroke-opacity="0.22" stroke-width="1.3" stroke-linecap="round" />
<path d="M312.5 452L270.5 387" stroke="#FFFFFF" stroke-opacity="0.22" stroke-width="1.3" stroke-linecap="round" />
<path d="M227.5 451L270.5 387" stroke="#000000" stroke-opacity="0.22" stroke-width="1.3" stroke-linecap="round" />
<path d="M227.5 451L270.5 387" stroke="#FFFFFF" stroke-opacity="0.22" stroke-width="1.3" stroke-linecap="round" />
<path d="M227.5 451L270.5 387" stroke="#000000" stroke-opacity="0.22" stroke-width="1.3" stroke-linecap="round" />
<path d="M227.5 451L270.5 387" stroke="#FFFFFF" stroke-opacity="0.22" stroke-width="1.3" stroke-linecap="round" />
<path d="M359 324.501L359 385.5" stroke="#000000" stroke-opacity="0.22" stroke-width="1.3" stroke-linecap="round" />
<path d="M359 324.501L359 385.5" stroke="#FFFFFF" stroke-opacity="0.22" stroke-width="1.3" stroke-linecap="round" />
<path d="M334.5 260.5L359 385.5" stroke="#000000" stroke-opacity="0.22" stroke-width="1.3" stroke-linecap="round" />
<path d="M334.5 260.5L359 385.5" stroke="#FFFFFF" stroke-opacity="0.22" stroke-width="1.3" stroke-linecap="round" />
<path d="M334.5 260.5L312.5 449" stroke="#000000" stroke-opacity="0.22" stroke-width="1.3" stroke-linecap="round" />
<path d="M334.5 260.5L312.5 449" stroke="#FFFFFF" stroke-opacity="0.22" stroke-width="1.3" stroke-linecap="round" />
<path d="M334.5 260.5L354.5 451" stroke="#000000" stroke-opacity="0.22" stroke-width="1.3" stroke-linecap="round" />
<path d="M334.5 260.5L354.5 451" stroke="#FFFFFF" stroke-opacity="0.22" stroke-width="1.3" stroke-linecap="round" />
<path d="M334.5 260.5L397 449.5" stroke="#000000" stroke-opacity="0.22" stroke-width="1.3" stroke-linecap="round" />
<path d="M334.5 260.5L397 449.5" stroke="#FFFFFF" stroke-opacity="0.22" stroke-width="1.3" stroke-linecap="round" />
<path d="M312.5 451.5L207 259.5" stroke="#000000" stroke-opacity="0.22" stroke-width="1.3" stroke-linecap="round" />
<path d="M312.5 451.5L207 259.5" stroke="#FFFFFF" stroke-opacity="0.22" stroke-width="1.3" stroke-linecap="round" />
<path d="M353.5 450.5L207 259.5" stroke="#000000" stroke-opacity="0.22" stroke-width="1.3" stroke-linecap="round" />
<path d="M353.5 450.5L207 259.5" stroke="#FFFFFF" stroke-opacity="0.22" stroke-width="1.3" stroke-linecap="round" />
<path d="M359.5 386.5L207 259.5" stroke="#000000" stroke-opacity="0.22" stroke-width="1.3" stroke-linecap="round" />
<path d="M359.5 386.5L207 259.5" stroke="#FFFFFF" stroke-opacity="0.22" stroke-width="1.3" stroke-linecap="round" />
<path d="M78.5 194.5L249 258.5" stroke="#000000" stroke-opacity="0.22" stroke-width="1.3" stroke-linecap="round" />
<path d="M78.5 194.5L249 258.5" stroke="#FFFFFF" stroke-opacity="0.22" stroke-width="1.3" stroke-linecap="round" />
<path d="M78.5 194.5L291 259.5" stroke="#000000" stroke-opacity="0.22" stroke-width="1.3" stroke-linecap="round" />
<path d="M78.5 194.5L291 259.5" stroke="#FFFFFF" stroke-opacity="0.22" stroke-width="1.3" stroke-linecap="round" />
<path d="M78.5 194.5L334.5 259.5" stroke="#000000" stroke-opacity="0.22" stroke-width="1.3" stroke-linecap="round" />
<path d="M78.5 194.5L334.5 259.5" stroke="#FFFFFF" stroke-opacity="0.22" stroke-width="1.3" stroke-linecap="round" />
<path d="M242.5 195.5L162 258.5" stroke="#000000" stroke-opacity="0.22" stroke-width="1.3" stroke-linecap="round" />
<path d="M242.5 195.5L162 258.5" stroke="#FFFFFF" stroke-opacity="0.22" stroke-width="1.3" stroke-linecap="round" />
<path d="M328.5 197L248 261.5" stroke="#000000" stroke-opacity="0.22" stroke-width="1.3" stroke-linecap="round" />
<path d="M328.5 197L248 261.5" stroke="#FFFFFF" stroke-opacity="0.22" stroke-width="1.3" stroke-linecap="round" />
<path d="M328.5 197L207 259" stroke="#000000" stroke-opacity="0.22" stroke-width="1.3" stroke-linecap="round" />
<path d="M328.5 197L207 259" stroke="#FFFFFF" stroke-opacity="0.22" stroke-width="1.3" stroke-linecap="round" />
<path d="M328.5 197.001L161.5 259.5" stroke="#000000" stroke-opacity="0.22" stroke-width="1.3" stroke-linecap="round" />
<path d="M328.5 197.001L161.5 259.5" stroke="#FFFFFF" stroke-opacity="0.22" stroke-width="1.3" stroke-linecap="round" />
<path d="M372 195.5L271.5 321.5" stroke="#000000" stroke-opacity="0.22" stroke-width="1.3" stroke-linecap="round" />
<path d="M372 195.5L271.5 321.5" stroke="#FFFFFF" stroke-opacity="0.22" stroke-width="1.3" stroke-linecap="round" />
<path d="M286.5 67L421.5 259.5" stroke="#000000" stroke-opacity="0.22" stroke-width="1.3" stroke-linecap="round" />
<path d="M286.5 67L421.5 259.5" stroke="#FFFFFF" stroke-opacity="0.22" stroke-width="1.3" stroke-linecap="round" />
<path d="M239.5 68L421.5 259.5" stroke="#000000" stroke-opacity="0.22" stroke-width="1.3" stroke-linecap="round" />
<path d="M239.5 68L421.5 259.5" stroke="#FFFFFF" stroke-opacity="0.22" stroke-width="1.3" stroke-linecap="round" />
<path d="M419.5 262L366.5 131" stroke="#000000" stroke-opacity="0.22" stroke-width="1.3" stroke-linecap="round" />
<path d="M419.5 262L366.5 131" stroke="#FFFFFF" stroke-opacity="0.22" stroke-width="1.3" stroke-linecap="round" />
<path d="M330 193.5L366.5 131" stroke="#000000" stroke-opacity="0.22" stroke-width="1.3" stroke-linecap="round" />
<path d="M330 193.5L366.5 131" stroke="#FFFFFF" stroke-opacity="0.22" stroke-width="1.3" stroke-linecap="round" />
<path d="M286.5 196L366.5 131" stroke="#000000" stroke-opacity="0.22" stroke-width="1.3" stroke-linecap="round" />
<path d="M286.5 196L366.5 131" stroke="#FFFFFF" stroke-opacity="0.22" stroke-width="1.3" stroke-linecap="round" />
<path d="M184 385.5L366.5 131.002" stroke="#000000" stroke-opacity="0.22" stroke-width="1.3" stroke-linecap="round" />
<path d="M184 385.5L366.5 131.002" stroke="#FFFFFF" stroke-opacity="0.22" stroke-width="1.3" stroke-linecap="round" />
<path d="M184 385.5L366.5 131.002" stroke="#000000" stroke-opacity="0.22" stroke-width="1.3" stroke-linecap="round" />
<path d="M184 385.5L366.5 131.002" stroke="#FFFFFF" stroke-opacity="0.22" stroke-width="1.3" stroke-linecap="round" />
<path d="M380 67.5002L294.5 130.5" stroke="#000000" stroke-opacity="0.22" stroke-width="1.3" stroke-linecap="round" />
<path d="M380 67.5002L294.5 130.5" stroke="#FFFFFF" stroke-opacity="0.22" stroke-width="1.3" stroke-linecap="round" />
<path d="M380 67.503L223.5 131" stroke="#000000" stroke-opacity="0.22" stroke-width="1.3" stroke-linecap="round" />
<path d="M380 67.503L223.5 131" stroke="#FFFFFF" stroke-opacity="0.22" stroke-width="1.3" stroke-linecap="round" />
<path d="M380 67.5L373 193.5" stroke="#000000" stroke-opacity="0.22" stroke-width="1.3" stroke-linecap="round" />
<path d="M380 67.5L373 193.5" stroke="#FFFFFF" stroke-opacity="0.22" stroke-width="1.3" stroke-linecap="round" />
<path d="M380 67.5L399 453.5" stroke="#000000" stroke-opacity="0.22" stroke-width="1.3" stroke-linecap="round" />
<path d="M380 67.5L399 453.5" stroke="#FFFFFF" stroke-opacity="0.22" stroke-width="1.3" stroke-linecap="round" />
<path d="M333 67L414 197" stroke="#000000" stroke-opacity="0.22" stroke-width="1.3" stroke-linecap="round" />
<path d="M333 67L414 197" stroke="#FFFFFF" stroke-opacity="0.22" stroke-width="1.3" stroke-linecap="round" />
<path d="M333 67L466 262" stroke="#000000" stroke-opacity="0.22" stroke-width="1.3" stroke-linecap="round" />
<path d="M333 67L466 262" stroke="#FFFFFF" stroke-opacity="0.22" stroke-width="1.3" stroke-linecap="round" />
<path d="M333 67L418.5 257.5" stroke="#000000" stroke-opacity="0.22" stroke-width="1.3" stroke-linecap="round" />
<path d="M333 67L418.5 257.5" stroke="#FFFFFF" stroke-opacity="0.22" stroke-width="1.3" stroke-linecap="round" />
<path d="M191.5 67L242.5 196.5" stroke="#000000" stroke-opacity="0.22" stroke-width="1.3" stroke-linecap="round" />
<path d="M191.5 67L242.5 196.5" stroke="#FFFFFF" stroke-opacity="0.22" stroke-width="1.3" stroke-linecap="round" />
<path d="M191.5 67L200.5 196" stroke="#000000" stroke-opacity="0.22" stroke-width="1.3" stroke-linecap="round" />
<path d="M191.5 67L200.5 196" stroke="#FFFFFF" stroke-opacity="0.22" stroke-width="1.3" stroke-linecap="round" />
<path d="M159 67L200.5 196.5" stroke="#000000" stroke-opacity="0.22" stroke-width="1.3" stroke-linecap="round" />
<path d="M159 67L200.5 196.5" stroke="#FFFFFF" stroke-opacity="0.22" stroke-width="1.3" stroke-linecap="round" />
<path d="M159 67L242.5 196" stroke="#000000" stroke-opacity="0.22" stroke-width="1.3" stroke-linecap="round" />
<path d="M159 67L242.5 196" stroke="#FFFFFF" stroke-opacity="0.22" stroke-width="1.3" stroke-linecap="round" />
<path d="M159 67L295 131" stroke="#000000" stroke-opacity="0.22" stroke-width="1.3" stroke-linecap="round" />
<path d="M159 67L295 131" stroke="#FFFFFF" stroke-opacity="0.22" stroke-width="1.3" stroke-linecap="round" />
<path d="M181 387L142 452" stroke="#000000" stroke-opacity="0.22" stroke-width="1.3" stroke-linecap="round" />
<path d="M181 387L142 452" stroke="#FFFFFF" stroke-opacity="0.22" stroke-width="1.3" stroke-linecap="round" />
<rect x="69" y="187" width="18" height="18" rx="9" fill="#6FC7BA" stroke="#000000" stroke-opacity="0.18" stroke-width="2.2" />
<rect x="69" y="187" width="18" height="18" rx="9" fill="#6FC7BA" stroke="#FFFFFF" stroke-opacity="0.70" stroke-width="2" />
<rect x="25" y="251" width="18" height="18" rx="9" fill="#6FC7BA" stroke="#000000" stroke-opacity="0.18" stroke-width="2.2" />
<rect x="25" y="251" width="18" height="18" rx="9" fill="#6FC7BA" stroke="#FFFFFF" stroke-opacity="0.70" stroke-width="2" />
<rect x="69" y="251" width="18" height="18" rx="9" fill="#6FC7BA" stroke="#000000" stroke-opacity="0.18" stroke-width="2.2" />
<rect x="69" y="251" width="18" height="18" rx="9" fill="#6FC7BA" stroke="#FFFFFF" stroke-opacity="0.70" stroke-width="2" />
<rect x="111" y="251" width="18" height="18" rx="9" fill="#6FC7BA" stroke="#000000" stroke-opacity="0.18" stroke-width="2.2" />
<rect x="111" y="251" width="18" height="18" rx="9" fill="#6FC7BA" stroke="#FFFFFF" stroke-opacity="0.70" stroke-width="2" />
<rect x="154" y="251" width="18" height="18" rx="9" fill="#6FC7BA" stroke="#000000" stroke-opacity="0.18" stroke-width="2.2" />
<rect x="154" y="251" width="18" height="18" rx="9" fill="#6FC7BA" stroke="#FFFFFF" stroke-opacity="0.70" stroke-width="2" />
<rect x="172" y="315" width="18" height="18" rx="9" fill="#6FC7BA" stroke="#000000" stroke-opacity="0.18" stroke-width="2.2" />
<rect x="172" y="315" width="18" height="18" rx="9" fill="#6FC7BA" stroke="#FFFFFF" stroke-opacity="0.70" stroke-width="2" />
<rect x="350" y="315" width="18" height="18" rx="9" fill="#6FC7BA" stroke="#000000" stroke-opacity="0.18" stroke-width="2.2" />
<rect x="350" y="315" width="18" height="18" rx="9" fill="#6FC7BA" stroke="#FFFFFF" stroke-opacity="0.70" stroke-width="2" />
<rect x="350" y="378" width="18" height="18" rx="9" fill="#6FC7BA" stroke="#000000" stroke-opacity="0.18" stroke-width="2.2" />
<rect x="350" y="378" width="18" height="18" rx="9" fill="#6FC7BA" stroke="#FFFFFF" stroke-opacity="0.70" stroke-width="2" />
<rect x="172" y="378" width="18" height="18" rx="9" fill="#6FC7BA" stroke="#000000" stroke-opacity="0.18" stroke-width="2.2" />
<rect x="172" y="378" width="18" height="18" rx="9" fill="#6FC7BA" stroke="#FFFFFF" stroke-opacity="0.70" stroke-width="2" />
<rect x="133" y="443" width="18" height="18" rx="9" fill="#6FC7BA" stroke="#000000" stroke-opacity="0.18" stroke-width="2.2" />
<rect x="133" y="443" width="18" height="18" rx="9" fill="#6FC7BA" stroke="#FFFFFF" stroke-opacity="0.70" stroke-width="2" />
<rect x="175" y="443" width="18" height="18" rx="9" fill="#6FC7BA" stroke="#000000" stroke-opacity="0.18" stroke-width="2.2" />
<rect x="175" y="443" width="18" height="18" rx="9" fill="#6FC7BA" stroke="#FFFFFF" stroke-opacity="0.70" stroke-width="2" />
<rect x="219" y="443" width="18" height="18" rx="9" fill="#6FC7BA" stroke="#000000" stroke-opacity="0.18" stroke-width="2.2" />
<rect x="219" y="443" width="18" height="18" rx="9" fill="#6FC7BA" stroke="#FFFFFF" stroke-opacity="0.70" stroke-width="2" />
<rect x="304" y="443" width="18" height="18" rx="9" fill="#6FC7BA" stroke="#000000" stroke-opacity="0.18" stroke-width="2.2" />
<rect x="304" y="443" width="18" height="18" rx="9" fill="#6FC7BA" stroke="#FFFFFF" stroke-opacity="0.70" stroke-width="2" />
<rect x="346" y="443" width="18" height="18" rx="9" fill="#6FC7BA" stroke="#000000" stroke-opacity="0.18" stroke-width="2.2" />
<rect x="346" y="443" width="18" height="18" rx="9" fill="#6FC7BA" stroke="#FFFFFF" stroke-opacity="0.70" stroke-width="2" />
<rect x="390" y="443" width="18" height="18" rx="9" fill="#6FC7BA" stroke="#000000" stroke-opacity="0.18" stroke-width="2.2" />
<rect x="390" y="443" width="18" height="18" rx="9" fill="#6FC7BA" stroke="#FFFFFF" stroke-opacity="0.70" stroke-width="2" />
<rect x="240" y="251" width="18" height="18" rx="9" fill="#6FC7BA" stroke="#000000" stroke-opacity="0.18" stroke-width="2.2" />
<rect x="240" y="251" width="18" height="18" rx="9" fill="#6FC7BA" stroke="#FFFFFF" stroke-opacity="0.70" stroke-width="2" />
<rect x="283" y="251" width="18" height="18" rx="9" fill="#6FC7BA" stroke="#000000" stroke-opacity="0.18" stroke-width="2.2" />
<rect x="283" y="251" width="18" height="18" rx="9" fill="#6FC7BA" stroke="#FFFFFF" stroke-opacity="0.70" stroke-width="2" />
<rect x="325" y="251" width="18" height="18" rx="9" fill="#6FC7BA" stroke="#000000" stroke-opacity="0.18" stroke-width="2.2" />
<rect x="325" y="251" width="18" height="18" rx="9" fill="#6FC7BA" stroke="#FFFFFF" stroke-opacity="0.70" stroke-width="2" />
<rect x="368" y="251" width="18" height="18" rx="9" fill="#6FC7BA" stroke="#000000" stroke-opacity="0.18" stroke-width="2.2" />
<rect x="368" y="251" width="18" height="18" rx="9" fill="#6FC7BA" stroke="#FFFFFF" stroke-opacity="0.70" stroke-width="2" />
<rect x="411" y="251" width="18" height="18" rx="9" fill="#6FC7BA" stroke="#000000" stroke-opacity="0.18" stroke-width="2.2" />
<rect x="411" y="251" width="18" height="18" rx="9" fill="#6FC7BA" stroke="#FFFFFF" stroke-opacity="0.70" stroke-width="2" />
<rect x="454" y="251" width="18" height="18" rx="9" fill="#6FC7BA" stroke="#000000" stroke-opacity="0.18" stroke-width="2.2" />
<rect x="454" y="251" width="18" height="18" rx="9" fill="#6FC7BA" stroke="#FFFFFF" stroke-opacity="0.70" stroke-width="2" />
<rect x="497" y="251" width="18" height="18" rx="9" fill="#6FC7BA" stroke="#000000" stroke-opacity="0.18" stroke-width="2.2" />
<rect x="497" y="251" width="18" height="18" rx="9" fill="#6FC7BA" stroke="#FFFFFF" stroke-opacity="0.70" stroke-width="2" />
<rect x="106" y="187" width="18" height="18" rx="9" fill="#6FC7BA" stroke="#000000" stroke-opacity="0.18" stroke-width="2.2" />
<rect x="106" y="187" width="18" height="18" rx="9" fill="#6FC7BA" stroke="#FFFFFF" stroke-opacity="0.70" stroke-width="2" />
<rect x="149" y="187" width="18" height="18" rx="9" fill="#6FC7BA" stroke="#000000" stroke-opacity="0.18" stroke-width="2.2" />
<rect x="149" y="187" width="18" height="18" rx="9" fill="#6FC7BA" stroke="#FFFFFF" stroke-opacity="0.70" stroke-width="2" />
<rect x="191" y="187" width="18" height="18" rx="9" fill="#6FC7BA" stroke="#000000" stroke-opacity="0.18" stroke-width="2.2" />
<rect x="191" y="187" width="18" height="18" rx="9" fill="#6FC7BA" stroke="#FFFFFF" stroke-opacity="0.70" stroke-width="2" />
<rect x="277" y="187" width="18" height="18" rx="9" fill="#6FC7BA" stroke="#000000" stroke-opacity="0.18" stroke-width="2.2" />
<rect x="277" y="187" width="18" height="18" rx="9" fill="#6FC7BA" stroke="#FFFFFF" stroke-opacity="0.70" stroke-width="2" />
<rect x="320" y="187" width="18" height="18" rx="9" fill="#6FC7BA" stroke="#000000" stroke-opacity="0.18" stroke-width="2.2" />
<rect x="320" y="187" width="18" height="18" rx="9" fill="#6FC7BA" stroke="#FFFFFF" stroke-opacity="0.70" stroke-width="2" />
<rect x="363" y="187" width="18" height="18" rx="9" fill="#6FC7BA" stroke="#000000" stroke-opacity="0.18" stroke-width="2.2" />
<rect x="363" y="187" width="18" height="18" rx="9" fill="#6FC7BA" stroke="#FFFFFF" stroke-opacity="0.70" stroke-width="2" />
<rect x="405" y="187" width="18" height="18" rx="9" fill="#6FC7BA" stroke="#000000" stroke-opacity="0.18" stroke-width="2.2" />
<rect x="405" y="187" width="18" height="18" rx="9" fill="#6FC7BA" stroke="#FFFFFF" stroke-opacity="0.70" stroke-width="2" />
<rect x="448" y="187" width="18" height="18" rx="9" fill="#6FC7BA" stroke="#000000" stroke-opacity="0.18" stroke-width="2.2" />
<rect x="448" y="187" width="18" height="18" rx="9" fill="#6FC7BA" stroke="#FFFFFF" stroke-opacity="0.70" stroke-width="2" />
<rect x="161" y="122" width="18" height="18" rx="9" fill="#6FC7BA" stroke="#000000" stroke-opacity="0.18" stroke-width="2.2" />
<rect x="161" y="122" width="18" height="18" rx="9" fill="#6FC7BA" stroke="#FFFFFF" stroke-opacity="0.70" stroke-width="2" />
<rect x="286" y="122" width="18" height="18" rx="9" fill="#6FC7BA" stroke="#000000" stroke-opacity="0.18" stroke-width="2.2" />
<rect x="286" y="122" width="18" height="18" rx="9" fill="#6FC7BA" stroke="#FFFFFF" stroke-opacity="0.70" stroke-width="2" />
<rect x="358" y="122" width="18" height="18" rx="9" fill="#6FC7BA" stroke="#000000" stroke-opacity="0.18" stroke-width="2.2" />
<rect x="358" y="122" width="18" height="18" rx="9" fill="#6FC7BA" stroke="#FFFFFF" stroke-opacity="0.70" stroke-width="2" />
<rect x="183" y="58" width="18" height="18" rx="9" fill="#6FC7BA" stroke="#000000" stroke-opacity="0.18" stroke-width="2.2" />
<rect x="183" y="58" width="18" height="18" rx="9" fill="#6FC7BA" stroke="#FFFFFF" stroke-opacity="0.70" stroke-width="2" />
<rect x="150" y="58" width="18" height="18" rx="9" fill="#6FC7BA" stroke="#000000" stroke-opacity="0.18" stroke-width="2.2" />
<rect x="150" y="58" width="18" height="18" rx="9" fill="#6FC7BA" stroke="#FFFFFF" stroke-opacity="0.70" stroke-width="2" />
<rect x="230" y="58" width="18" height="18" rx="9" fill="#6FC7BA" stroke="#000000" stroke-opacity="0.18" stroke-width="2.2" />
<rect x="230" y="58" width="18" height="18" rx="9" fill="#6FC7BA" stroke="#FFFFFF" stroke-opacity="0.70" stroke-width="2" />
<rect x="277" y="58" width="18" height="18" rx="9" fill="#6FC7BA" stroke="#000000" stroke-opacity="0.18" stroke-width="2.2" />
<rect x="277" y="58" width="18" height="18" rx="9" fill="#6FC7BA" stroke="#FFFFFF" stroke-opacity="0.70" stroke-width="2" />
<rect x="371" y="58" width="18" height="18" rx="9" fill="#6FC7BA" stroke="#000000" stroke-opacity="0.18" stroke-width="2.2" />
<rect x="371" y="58" width="18" height="18" rx="9" fill="#6FC7BA" stroke="#FFFFFF" stroke-opacity="0.70" stroke-width="2" />
<path d="M333.497 67.8677C333.976 67.5932 334.142 66.9822 333.868 66.5029C333.593 66.0237 332.982 65.8578 332.503 66.1323L333 67L333.497 67.8677ZM230 126L241.547 126.039L235.808 116.02L230 126ZM333 67L332.503 66.1323L237.312 120.659L237.81 121.527L238.307 122.394L333.497 67.8677L333 67Z" fill="#6FC7BA" />
<path d="M240 186L242.192 174.663L231.278 178.433L240 186ZM221.945 130.673C221.765 130.151 221.195 129.874 220.673 130.055C220.151 130.235 219.874 130.805 220.055 131.327L221 131L221.945 130.673ZM237.061 177.493L238.007 177.167L221.945 130.673L221 131L220.055 131.327L236.116 177.82L237.061 177.493Z" fill="#6FC7BA" />
<path d="M239.854 204.52C240.141 204.048 239.992 203.433 239.52 203.146C239.048 202.859 238.433 203.008 238.146 203.48L239 204L239.854 204.52ZM211 250L221.131 244.46L211.268 238.456L211 250ZM239 204L238.146 203.48L214.825 241.792L215.68 242.312L216.534 242.832L239.854 204.52L239 204Z" fill="#6FC7BA" />
<path d="M262.5 316.5L259.511 305.346L251.346 313.511L262.5 316.5ZM206.707 259.293C206.317 258.902 205.683 258.902 205.293 259.293C204.902 259.683 204.902 260.317 205.293 260.707L206 260L206.707 259.293ZM256.136 310.136L256.843 309.429L206.707 259.293L206 260L205.293 260.707L255.429 310.843L256.136 310.136Z" fill="#6FC7BA" />
<path d="M271 324C271 323.448 270.552 323 270 323C269.448 323 269 323.448 269 324L270 324L271 324ZM270 377L275.773 367L264.226 367L270 377ZM270 324L269 324L269 368L270 368L271 368L271 324L270 324Z" fill="#6FC7BA" />
<rect x="260" y="443" width="18" height="18" rx="9" fill="#6FC7BA" stroke="#000000" stroke-opacity="0.18" stroke-width="2.2" />
<rect x="260" y="443" width="18" height="18" rx="9" fill="#6FC7BA" stroke="#FFFFFF" stroke-opacity="0.70" stroke-width="2" />
<path d="M270 441L275.773 431L264.226 431L270 441ZM271 387.5C271 386.948 270.552 386.5 270 386.5C269.448 386.5 269 386.948 269 387.5L270 387.5L271 387.5ZM270 432L271 432L271 387.5L270 387.5L269 387.5L269 432L270 432Z" fill="#6FC7BA" />
<rect x="261" y="315" width="18" height="18" rx="9" fill="#6FC7BA" stroke="#000000" stroke-opacity="0.18" stroke-width="2.2" />
<rect x="261" y="315" width="18" height="18" rx="9" fill="#6FC7BA" stroke="#FFFFFF" stroke-opacity="0.70" stroke-width="2" />
<rect x="261" y="378" width="18" height="18" rx="9" fill="#6FC7BA" stroke="#000000" stroke-opacity="0.18" stroke-width="2.2" />
<rect x="261" y="378" width="18" height="18" rx="9" fill="#6FC7BA" stroke="#FFFFFF" stroke-opacity="0.70" stroke-width="2" />
<rect x="197" y="251" width="18" height="18" rx="9" fill="#6FC7BA" stroke="#000000" stroke-opacity="0.18" stroke-width="2.2" />
<rect x="197" y="251" width="18" height="18" rx="9" fill="#6FC7BA" stroke="#FFFFFF" stroke-opacity="0.70" stroke-width="2" />
<rect x="234" y="187" width="18" height="18" rx="9" fill="#6FC7BA" stroke="#000000" stroke-opacity="0.18" stroke-width="2.2" />
<rect x="234" y="187" width="18" height="18" rx="9" fill="#6FC7BA" stroke="#FFFFFF" stroke-opacity="0.70" stroke-width="2" />
<rect x="212" y="122" width="18" height="18" rx="9" fill="#6FC7BA" stroke="#000000" stroke-opacity="0.18" stroke-width="2.2" />
<rect x="212" y="122" width="18" height="18" rx="9" fill="#6FC7BA" stroke="#FFFFFF" stroke-opacity="0.70" stroke-width="2" />
<rect x="324" y="58" width="18" height="18" rx="9" fill="#6FC7BA" stroke="#000000" stroke-opacity="0.18" stroke-width="2.2" />
<rect x="324" y="58" width="18" height="18" rx="9" fill="#6FC7BA" stroke="#FFFFFF" stroke-opacity="0.70" stroke-width="2" />
<rect x="20" y="272" width="500" height="228" fill="url(#paint0_linear_6373_9051)" />
</g>

</svg>